# xmcd
#
# Track frame offsets: 
#        150
#        9675
#        162900
#
# Disc length: 2890 seconds
#
# Revision: 1
# Processed by: cddbd v1.5.2PL0 Copyright (c) Steve Scherf et al.
# Submitted via: ExactAudioCopy v1.0b3
#
DISCID=1a0b4803
DTITLE=Achim Jaroschek - Peter Brotzmann - Neurotransmitter
DYEAR=1998
DGENRE=Jazz
TTITLE0=Brain Change
TTITLE1=Vagus
TTITLE2=Mirror Act
EXTD=
EXTT0=
EXTT1=
EXTT2=
PLAYORDER=
